<svg xmlns="http://www.w3.org/2000/svg" viewBox="0 0 168 32" fill="#16201f">
  <path d="M31.552 4.488h-5.888c-0.213 0-0.405 0.17-0.427 0.383l-1.259 15.47c-0.021 0.213-0.192 0.362-0.405 0.362s-0.384-0.17-0.405-0.362l-1.003-12.789c-0.171-1.745-1.643-3.085-3.392-3.085h-5.525c-1.749 0-3.221 1.341-3.392 3.085l-1.003 12.789c-0.021 0.213-0.192 0.362-0.405 0.362s-0.384-0.17-0.405-0.362l-1.259-15.47c-0.021-0.213-0.213-0.383-0.427-0.383h-5.93c-0.256 0-0.448 0.213-0.427 0.468l1.579 16.427c0.341 3.511 3.243 6.15 6.784 6.15s6.442-2.639 6.784-6.15l0.704-10.15c0.021-0.191 0.277-0.191 0.299 0l0.704 10.15c0.341 3.511 3.243 6.15 6.784 6.15 3.52 0 6.442-2.639 6.784-6.15l1.579-16.427c0-0.255-0.213-0.468-0.448-0.468z"></path>
  <text x="40" y="24" font-family="Verdana, Geneva, sans-serif" font-size="22" font-weight="700" letter-spacing="-0.5">wecasa</text>
</svg>
